<svg width="48" height="48" xmlns="http://www.w3.org/2000/svg">

 <g>
  <title>background</title>
  <rect fill="none" id="canvas_background" height="402" width="582" y="-1" x="-1"/>
 </g>
 <g>
  <title>Layer 1</title>
  <g stroke="null" id="svg_7">
   <path fill="#ffffff" stroke="null" id="svg_2" d="m23.633784,29.452835c-2.888854,0 -5.252461,-2.363607 -5.252461,-5.252461c0,-2.888854 2.363607,-5.252461 5.252461,-5.252461c2.888854,0 5.252461,2.363607 5.252461,5.252461c0,2.888854 -2.363607,5.252461 -5.252461,5.252461zm0,-7.878691c-1.444427,0 -2.62623,1.181804 -2.62623,2.62623c0,1.444427 1.181804,2.62623 2.62623,2.62623c1.444427,0 2.62623,-1.181804 2.62623,-2.62623c0,-1.444427 -1.181804,-2.62623 -2.62623,-2.62623z"/>
   <path fill="#ffffff" stroke="null" id="svg_4" d="m23.633784,47.836448c-2.888854,0 -5.252461,-2.363607 -5.252461,-5.252461s2.363607,-5.252461 5.252461,-5.252461c2.888854,0 5.252461,2.363607 5.252461,5.252461s-2.363607,5.252461 -5.252461,5.252461zm0,-7.878691c-1.444427,0 -2.62623,1.181804 -2.62623,2.62623s1.181804,2.62623 2.62623,2.62623c1.444427,0 2.62623,-1.181804 2.62623,-2.62623s-1.181804,-2.62623 -2.62623,-2.62623z"/>
   <path fill="#ffffff" stroke="null" id="svg_6" d="m23.633784,11.069221c-2.888854,0 -5.252461,-2.363607 -5.252461,-5.252461s2.363607,-5.252461 5.252461,-5.252461c2.888854,0 5.252461,2.363607 5.252461,5.252461s-2.363607,5.252461 -5.252461,5.252461zm0,-7.878691c-1.444427,0 -2.62623,1.181804 -2.62623,2.62623s1.181804,2.62623 2.62623,2.62623c1.444427,0 2.62623,-1.181804 2.62623,-2.62623s-1.181804,-2.62623 -2.62623,-2.62623z"/>
  </g>
 </g>
</svg>