<svg width="512" height="512" xmlns="http://www.w3.org/2000/svg">

 <g>
  <title>background</title>
  <rect fill="none" id="canvas_background" height="402" width="582" y="-1" x="-1"/>
 </g>
 <g>
  <title>Layer 1</title>
  <path id="svg_2" fill-rule="evenodd" clip-rule="evenodd" fill="#ffffff" d="m129.666,162.493l81.486,38.845c7.965,-13.277 27.223,-49.403 37.061,-59.269l18.518,35.215l-24.123,12.951l105.59,25.903l29.688,-99.973l-20.44,11.103c-14.165,-35.52 -35.801,-53.23 -74.847,-53.71l-70.901,0c-31.289,0 -29.283,4.58 -44.11,28.292l-37.922,60.643z"/>
  <path id="svg_3" fill-rule="evenodd" clip-rule="evenodd" fill="#ffffff" d="m348.197,293.98c3.704,5.554 7.398,11.096 9.247,16.66l-40.693,0l0,-16.66l1.796,-9.307l-74.029,79.682l74.029,74.086l1.898,-24.113l11.106,0c36.697,0 53.555,-9.166 72.226,-42.573c0,0 23.329,-46.521 33.242,-63.8l3.769,-6.566c2.116,-3.496 3.155,-7.248 3.342,-11.085l0,-2.528c-0.266,-5.521 -2.195,-11.064 -5.187,-16.053l-44.482,-75.939l-74.016,53.737l27.752,44.459z"/>
  <path id="svg_4" fill-rule="evenodd" clip-rule="evenodd" fill="#ffffff" d="m168.534,199.494l-99.98,24.123l18.495,14.801c-24.08,32.164 -24.977,57.575 -5.541,92.563c0,0 24.156,40.635 36.049,59.268l4.714,7.41c5.484,11.105 14.806,14.805 27.756,14.805l83.333,0l0,-88.868l-75.928,0l20.355,-35.159c5.604,1.846 13.01,7.398 14.79,9.254l7.398,5.553l-31.441,-103.75z"/>
 </g>
</svg>