<svg width="128" height="128" xmlns="http://www.w3.org/2000/svg">

 <g>
  <title>background</title>
  <rect fill="none" id="canvas_background" height="402" width="582" y="-1" x="-1"/>
 </g>
 <g>
  <title>Layer 1</title>
  <path stroke="#e5e5e5" fill="#ffffff" clip-rule="evenodd" fill-rule="evenodd" id="XMLID_11_" d="m64,4c33.1,0 60,26.9 60,60s-26.9,60 -60,60s-60,-26.9 -60,-60s26.9,-60 60,-60l0,0zm0,-4c-35.3,0 -64,28.7 -64,64c0,35.3 28.7,64 64,64c35.3,0 64,-28.7 64,-64c0,-35.3 -28.7,-64 -64,-64z" class="st0"/>
  <path stroke="#cccccc" fill="#ffffff" clip-rule="evenodd" fill-rule="evenodd" id="XMLID_8_" d="m52.190434,67.313477l35.183182,-35.12656c5.403953,-5.412945 14.142259,-5.412945 19.546212,0c5.403953,5.412945 5.403953,14.165793 0,19.578738c-15.062081,14.971976 -30.009184,29.943953 -44.956288,44.915929c-5.173997,5.182607 -13.337415,5.412945 -18.741368,0.691014c-0.229955,-0.230338 -0.574889,-0.345507 -0.804844,-0.691014l-25.295098,-25.567529c-5.403953,-5.412945 -5.403953,-14.165793 0,-19.578738c5.403953,-5.412945 14.142259,-5.412945 19.546212,0l15.521992,15.77816l0,0zm0,6.564636l-18.856346,-19.002893c-3.564309,-3.57024 -9.428173,-3.57024 -12.992482,0c-3.564309,3.57024 -3.564309,9.443862 0,13.014102l25.295098,25.567529l0,-0.115169l0,0c3.564309,3.57024 9.428173,3.57024 12.992482,0c34.378338,-34.205207 10.692928,-10.480383 44.956288,-44.915929c3.564309,-3.57024 3.564309,-9.443862 0,-13.014102c-3.564309,-3.57024 -9.428173,-3.57024 -12.992482,0l-38.402558,38.466462z" class="st0"/>
 </g>
</svg>